PathFileType	4	(X/Y/Z)	./resultDataOpenSim/trcMotMarkerGrf/sub09/qtm-01-01.trc
DataRate	CameraRate	NumFrames	NumMarkers	Units	OrigDataRate	OrigDataStartFrame	OrigNumFrames
250.000000	250.000000	12	24	m	250.000000	367	488
Frame#	Time	L.Toe.Tip			R.Toe.Tip			L.Ankle.Lat			R.Ankle.Lat			L.Ankle.Med			R.Ankle.Med			L.Heel			R.Heel			L.Knee.Lat			R.Knee.Lat			L.Knee.Med			R.Knee.Med			L.Thigh.Upper			R.Thigh.Upper			L.ASIS			R.ASIS			V.Sacral			L.Acromium			R.Acromium			C7			L.Elbow			R.Elbow			L.Wrist.Lat			R.Wrist.Lat
		X1	Y1	Z1	X2	Y2	Z2	X3	Y3	Z3	X4	Y4	Z4	X5	Y5	Z5	X6	Y6	Z6	X7	Y7	Z7	X8	Y8	Z8	X9	Y9	Z9	X10	Y10	Z10	X11	Y11	Z11	X12	Y12	Z12	X13	Y13	Z13	X14	Y14	Z14	X15	Y15	Z15	X16	Y16	Z16	X17	Y17	Z17	X18	Y18	Z18	X19	Y19	Z19	X20	Y20	Z20	X21	Y21	Z21	X22	Y22	Z22	X23	Y23	Z23	X24	Y24	Z24

367	1.464	0.9907387	0.065023706	-0.013797413	1.0165682	0.039067424	0.12232476	0.86264755	0.14931667	-0.035891335	0.87096182	0.062183862	0.16851444	0.89545833	0.15112151	0.057732293	0.87933748	0.10264795	0.077817164	0.78600654	0.13254151	0.017002106	0.80028792	0.045845458	0.12341172	1.0655311	0.51259882	-0.058014694	0.97870974	0.50948317	0.22399322	1.0698021	0.50446101	0.065255197	0.95482298	0.49868782	0.098081923	0.90970277	0.8997068	-0.089164584	0.91610467	0.91317713	0.28194099	0.98516542	0.98864877	-0.033536218	1.000369	0.99840977	0.20438251	0.82424128	1.0475149	0.091247887	0.96832574	1.442636	-0.088874054	0.96668319	1.4620707	0.24149758	0.89989098	1.4999516	0.077785283	0.8190439	1.1068084	-0.13424933	0.86327984	1.1130646	0.34756388	0.94746093	0.87586234	-0.17749523	1.0480588	0.90964169	0.34712283
368	1.468	1.0103542	0.064292739	-0.013818872	1.0165802	0.038971851	0.12230737	0.87995977	0.14477028	-0.035700353	0.87094194	0.062494976	0.16830421	0.91278766	0.14757483	0.057816342	0.87931646	0.10293066	0.077588864	0.80366301	0.12581209	0.017493285	0.80035491	0.046328158	0.12300798	1.0731096	0.51382868	-0.057742277	0.97968132	0.50956126	0.2243074	1.0806211	0.5059864	0.06633399	0.95615127	0.49893124	0.098123238	0.9152029	0.90038139	-0.089304694	0.91956737	0.9137495	0.28202066	0.99032867	0.98931957	-0.033383178	1.0048662	0.99902598	0.20456254	0.82904494	1.0480449	0.090849336	0.97324475	1.4431197	-0.089087504	0.97166686	1.462708	0.24127385	0.90488053	1.500558	0.07757522	0.82337246	1.1075793	-0.13444016	0.8684531	1.1135729	0.34778311	0.95129096	0.87647931	-0.17828167	1.0544936	0.91125349	0.3461535
369	1.472	1.0300265	0.063779838	-0.013870978	1.0166163	0.03892914	0.12228784	0.89738883	0.14032192	-0.035530085	0.87087193	0.062776303	0.16808531	0.93009883	0.14410423	0.058003311	0.87932257	0.10324112	0.077386111	0.82152108	0.1192588	0.017892742	0.80042956	0.046760486	0.12260926	1.0804592	0.51494894	-0.057539506	0.98061567	0.50959959	0.22456997	1.094672	0.50758271	0.06823239	0.9575937	0.49915917	0.09822719	0.92072247	0.90095628	-0.089396087	0.9225106	0.91434323	0.28216107	0.99549941	0.98991118	-0.033233336	1.0093759	0.99958733	0.20473878	0.83386542	1.0485026	0.090445812	0.97815762	1.4435403	-0.0893064	0.97662347	1.4632764	0.24104294	0.90985866	1.5010861	0.077357717	0.82772604	1.1082806	-0.13462808	0.873607	1.1139982	0.34798681	0.95515489	0.87702581	-0.1790576	1.0608739	0.91281056	0.34517339
370	1.476	1.0497148	0.063479264	-0.013958012	1.0167105	0.038943986	0.1222632	0.91492371	0.13598458	-0.035403358	0.87078786	0.063017683	0.1678571	0.94704054	0.14065855	0.058673164	0.87947805	0.10357246	0.077188859	0.83981286	0.11280667	0.018102608	0.80049636	0.047139762	0.1221929	1.0876063	0.51594814	-0.057402983	0.98154763	0.50960077	0.2248013	1.109824	0.50913951	0.070387417	0.95915046	0.49940009	0.098454751	0.92625236	0.90143373	-0.089436999	0.92473614	0.91488891	0.28244283	1.0006702	0.99042997	-0.033094192	1.0138964	1.0000891	0.20490685	0.83869977	1.0488878	0.090032708	0.98305974	1.4439003	-0.08953107	0.98155162	1.463776	0.24080416	0.91481907	1.5015286	0.077131178	0.8320998	1.1089122	-0.13480941	0.87864966	1.1143165	0.34811943	0.9590509	0.87750014	-0.17981404	1.0672005	0.91431219	0.34418229
371	1.48	1.0693783	0.06338533	-0.01408124	1.0169246	0.039013482	0.12222357	0.93251035	0.13180297	-0.035318704	0.87081422	0.063213943	0.16758171	0.96347782	0.13720964	0.059997587	0.87971139	0.10389799	0.076948702	0.85849421	0.10646447	0.018029325	0.80053368	0.047475088	0.12173563	1.0945875	0.51682229	-0.057302868	0.98250297	0.50957721	0.22502229	1.1230761	0.51045837	0.072058477	0.96071256	0.49964607	0.098766537	0.9317677	0.90182515	-0.089463776	0.92680022	0.91535458	0.28275979	1.0058439	0.99087295	-0.032974744	1.0184253	1.0005277	0.20506839	0.84353851	1.0492072	0.089606078	0.98795214	1.4442003	-0.089766921	0.98645297	1.4642057	0.24055868	0.91975895	1.5018905	0.076894205	0.83649541	1.1094755	-0.13498911	0.88348181	1.1145156	0.34813792	0.96297861	0.87790546	-0.18054397	1.073475	0.91574563	0.34318103
372	1.484	1.0889962	0.063506888	-0.014241256	1.0173135	0.039138708	0.12217075	0.95009351	0.12782478	-0.035257196	0.87106057	0.063364061	0.16722025	0.98006851	0.13392146	0.06127695	0.87987308	0.10419433	0.076638347	0.87727668	0.10031348	0.017735983	0.80053503	0.047783905	0.12123698	1.1014288	0.51756645	-0.057212997	0.98347681	0.50953699	0.22522745	1.1329532	0.51142192	0.072908497	0.96217131	0.49985955	0.099041589	0.9372424	0.90214365	-0.089524045	0.9295219	0.91574704	0.28293762	1.0110291	0.99123471	-0.032874293	1.0229588	1.0009015	0.20522111	0.84837399	1.0494562	0.08917389	0.9928418	1.4444372	-0.090014736	0.99133444	1.4645649	0.24030872	0.92468328	1.5021819	0.076645351	0.84091278	1.1099722	-0.13517513	0.88814588	1.1146241	0.34808514	0.96694197	0.87824656	-0.1812513	1.0797005	0.91709567	0.34217259
373	1.488	1.108557	0.063852532	-0.014438128	1.0178611	0.039315512	0.12212587	0.96767152	0.12406383	-0.035203849	0.87145157	0.063482244	0.16680818	0.99841702	0.13126702	0.060776236	0.88000106	0.10441946	0.076310509	0.89594857	0.094446538	0.017373865	0.80049149	0.048094473	0.12070647	1.1081399	0.51817907	-0.057126439	0.98445635	0.50948137	0.22540591	1.1401364	0.51205924	0.073134201	0.96352063	0.50000756	0.099181175	0.94266658	0.90239628	-0.089632505	0.93321675	0.91610063	0.2829055	1.0162301	0.99151928	-0.032785739	1.0274958	1.0012116	0.20535584	0.8532009	1.0496067	0.08874735	0.99773477	1.4446129	-0.090262948	0.9962082	1.4648554	0.24005912	0.9295991	1.5024093	0.07638111	0.84535112	1.1104009	-0.13537572	0.89280196	1.1146876	0.3480563	0.97094538	0.87852731	-0.18194478	1.085882	0.91836042	0.34116374
374	1.492	1.128045	0.064421036	-0.014675226	1.0184307	0.039488911	0.12209782	0.98530673	0.12049053	-0.035159062	0.87179057	0.063587696	0.16643001	1.0196298	0.12964579	0.057256947	0.88028766	0.1045398	0.076084343	0.91448025	0.088922263	0.017051818	0.80038945	0.048425337	0.1201538	1.1147174	0.51866338	-0.057050452	0.98543185	0.50941172	0.22554784	1.146098	0.5124652	0.073108382	0.9648156	0.50008627	0.099182861	0.94804673	0.90258443	-0.089769866	0.93767788	0.91644564	0.28270165	1.0214423	0.99173712	-0.032706621	1.032042	1.001461	0.20546867	0.85801839	1.0496251	0.088314643	1.0026342	1.4447334	-0.090501884	1.0010798	1.4650799	0.23981297	0.93450943	1.5025745	0.076099176	0.84981497	1.1107545	-0.13559489	0.89752397	1.1147141	0.34808054	0.97499115	0.87874886	-0.18262923	1.0920267	0.91955005	0.34016159
375	1.496	1.1474362	0.065214235	-0.014964351	1.0188026	0.039553678	0.12206342	1.0030558	0.11707377	-0.035132566	0.8719766	0.06368171	0.16612395	1.0424163	0.12873718	0.051991241	0.88075951	0.10458839	0.075994185	0.9329491	0.083713645	0.016841635	0.8002565	0.048750066	0.11962021	1.1211618	0.51902101	-0.056999489	0.98639793	0.5093161	0.22564451	1.1518044	0.51270903	0.07305412	0.96610045	0.50011128	0.099114943	0.9533954	0.90270658	-0.08991115	0.94253378	0.91677552	0.28240161	1.0266603	0.99189322	-0.032641931	1.036605	1.0016522	0.20556609	0.86283086	1.0495035	0.087826079	1.007543	1.4447991	-0.090740679	1.0059406	1.4652397	0.23956578	0.93941513	1.5026763	0.075806361	0.85430513	1.1110247	-0.13582634	0.90227595	1.114682	0.34812177	0.979081	0.87890908	-0.18330445	1.0981409	0.92067269	0.33916815
376	1.5	1.1666978	0.066245926	-0.015315596	1.0188342	0.039484357	0.12201576	1.0208909	0.11383033	-0.035130263	0.8720422	0.063757791	0.16586824	1.0639089	0.12766156	0.047965531	0.88122751	0.10463739	0.07593147	0.95149194	0.078732092	0.016777921	0.80015221	0.0490168	0.11916767	1.1274838	0.51924927	-0.056980445	0.98736539	0.50917893	0.22570469	1.1575418	0.51281616	0.073013459	0.96739186	0.5000913	0.099040591	0.95872397	0.90275949	-0.090047012	0.94746142	0.91705702	0.2820766	1.0318869	0.99198554	-0.03259894	1.0411868	1.0017832	0.20565279	0.86762271	1.0492537	0.087211257	1.0124624	1.4448034	-0.090994423	1.0107778	1.4653343	0.23931001	0.94431793	1.5027128	0.075522414	0.85881547	1.11121	-0.13606011	0.90706385	1.1145884	0.34817359	0.98321637	0.87900641	-0.18396778	1.1042282	0.92172915	0.33818123
377	1.504	1.1858012	0.067529395	-0.015722205	1.018575	0.039390268	0.12198855	1.0387293	0.11080329	-0.035149532	0.87204479	0.063821161	0.16563538	1.0823828	0.12581062	0.047072522	0.88154712	0.10471969	0.075794353	0.97027153	0.073914019	0.016804804	0.80009548	0.049208196	0.11881307	1.133683	0.519351	-0.056987425	0.98835079	0.50900655	0.2257382	1.1632689	0.51278952	0.072958862	0.96866234	0.50002798	0.098956289	0.96404183	0.90274035	-0.090180858	0.95227646	0.91726258	0.28177303	1.0371345	0.99201231	-0.032581223	1.0457835	1.0018501	0.20572458	0.8723568	1.0488908	0.08644288	1.017388	1.4447429	-0.091260537	1.0155867	1.4653609	0.23904246	0.94922185	1.5026792	0.075275683	0.86334537	1.1113187	-0.13629376	0.91195232	1.114453	0.34827072	0.98739648	0.87904294	-0.18461731	1.1102904	0.9227166	0.33719973
378	1.508	1.2047362	0.069061421	-0.016169929	1.018208	0.039374655	0.12199859	1.0565143	0.10801784	-0.035181816	0.87201732	0.063881492	0.16541527	1.0981802	0.12322137	0.049052409	0.88172321	0.10480946	0.075581074	0.98938582	0.069245155	0.016834096	0.80005771	0.049346597	0.11852129	1.1397302	0.51934497	-0.057025585	0.98935634	0.50880923	0.2257312	1.1689015	0.51263035	0.072874362	0.96983419	0.49993433	0.098776511	0.96936403	0.90264699	-0.090316868	0.95692037	0.91738473	0.28151164	1.0424124	0.9919741	-0.032584941	1.0503906	1.0018518	0.20577865	0.87705688	1.0484692	0.085610611	1.0223133	1.4446201	-0.091526106	1.0203732	1.4653165	0.23876482	0.95413109	1.5025683	0.075082587	0.86789811	1.1113594	-0.13653165	0.91695902	1.1142837	0.3484268	0.99161919	0.87901953	-0.18525332	1.1163271	0.92363214	0.33622612
